<?xml version="1.0" encoding="utf-8" standalone="no"?>
<!DOCTYPE svg PUBLIC "-//W3C//DTD SVG 1.1//EN"
  "http://www.w3.org/Graphics/SVG/1.1/DTD/svg11.dtd">
<svg xmlns:xlink="http://www.w3.org/1999/xlink" width="721.099976pt" height="376.302733pt" viewBox="0 0 721.099976 376.302733" xmlns="http://www.w3.org/2000/svg" version="1.1">
 <metadata>
  <rdf:RDF xmlns:dc="http://purl.org/dc/elements/1.1/" xmlns:cc="http://creativecommons.org/ns#" xmlns:rdf="http://www.w3.org/1999/02/22-rdf-syntax-ns#">
   <cc:Work>
    <dc:type rdf:resource="http://purl.org/dc/dcmitype/StillImage"/>
    <dc:date>2024-12-09T16:46:57.361134</dc:date>
    <dc:format>image/svg+xml</dc:format>
    <dc:creator>
     <cc:Agent>
      <dc:title>Matplotlib v3.9.2, https://matplotlib.org/</dc:title>
     </cc:Agent>
    </dc:creator>
   </cc:Work>
  </rdf:RDF>
 </metadata>
 <defs>
  <style type="text/css">*{stroke-linejoin: round; stroke-linecap: butt}</style>
 </defs>
 <g id="figure_1">
  <g id="patch_1">
   <path d="M 0 376.302733 
L 721.099976 376.302733 
L 721.099976 0 
L 0 0 
z
" style="fill: #ffffff"/>
  </g>
  <g id="axes_1">
   <g id="patch_2">
    <path d="M 146.579976 298.736653 
L 436.450106 298.736653 
L 436.450106 49.256653 
L 146.579976 49.256653 
z
" style="fill: #ffffff"/>
   </g>
   <g id="patch_3">
    <path d="M 159.755891 298.736653 
L 173.625275 298.736653 
L 173.625275 102.793814 
L 159.755891 102.793814 
z
" clip-path="url(#p4a9e1dd155)" style="fill: #0b63a0"/>
   </g>
   <g id="patch_4">
    <path d="M 229.102812 298.736653 
L 242.972196 298.736653 
L 242.972196 77.810664 
L 229.102812 77.810664 
z
" clip-path="url(#p4a9e1dd155)" style="fill: #0b63a0"/>
   </g>
   <g id="patch_5">
    <path d="M 298.449733 298.736653 
L 312.319117 298.736653 
L 312.319117 107.225485 
L 298.449733 107.225485 
z
" clip-path="url(#p4a9e1dd155)" style="fill: #0b63a0"/>
   </g>
   <g id="patch_6">
    <path d="M 367.796654 298.736653 
L 381.666038 298.736653 
L 381.666038 180.650198 
L 367.796654 180.650198 
z
" clip-path="url(#p4a9e1dd155)" style="fill: #0b63a0"/>
   </g>
   <g id="patch_7">
    <path d="M 173.625275 298.736653 
L 187.494659 298.736653 
L 187.494659 106.818435 
L 173.625275 106.818435 
z
" clip-path="url(#p4a9e1dd155)" style="fill: #ffae0d"/>
   </g>
   <g id="patch_8">
    <path d="M 242.972196 298.736653 
L 256.84158 298.736653 
L 256.84158 99.112867 
L 242.972196 99.112867 
z
" clip-path="url(#p4a9e1dd155)" style="fill: #ffae0d"/>
   </g>
   <g id="patch_9">
    <path d="M 312.319117 298.736653 
L 326.188501 298.736653 
L 326.188501 92.282127 
L 312.319117 92.282127 
z
" clip-path="url(#p4a9e1dd155)" style="fill: #ffae0d"/>
   </g>
   <g id="patch_10">
    <path d="M 381.666038 298.736653 
L 395.535422 298.736653 
L 395.535422 165.021236 
L 381.666038 165.021236 
z
" clip-path="url(#p4a9e1dd155)" style="fill: #ffae0d"/>
   </g>
   <g id="patch_11">
    <path d="M 187.494659 298.736653 
L 201.364044 298.736653 
L 201.364044 209.344474 
L 187.494659 209.344474 
z
" clip-path="url(#p4a9e1dd155)" style="fill: #d62728"/>
   </g>
   <g id="patch_12">
    <path d="M 256.84158 298.736653 
L 270.710965 298.736653 
L 270.710965 243.163143 
L 256.84158 243.163143 
z
" clip-path="url(#p4a9e1dd155)" style="fill: #d62728"/>
   </g>
   <g id="patch_13">
    <path d="M 326.188501 298.736653 
L 340.057886 298.736653 
L 340.057886 151.250659 
L 326.188501 151.250659 
z
" clip-path="url(#p4a9e1dd155)" style="fill: #d62728"/>
   </g>
   <g id="patch_14">
    <path d="M 395.535422 298.736653 
L 409.404807 298.736653 
L 409.404807 237.287104 
L 395.535422 237.287104 
z
" clip-path="url(#p4a9e1dd155)" style="fill: #d62728"/>
   </g>
   <g id="patch_15">
    <path d="M 201.364044 298.736653 
L 215.233428 298.736653 
L 215.233428 201.588083 
L 201.364044 201.588083 
z
" clip-path="url(#p4a9e1dd155)" style="fill: #9a5092"/>
   </g>
   <g id="patch_16">
    <path d="M 270.710965 298.736653 
L 284.580349 298.736653 
L 284.580349 241.603741 
L 270.710965 241.603741 
z
" clip-path="url(#p4a9e1dd155)" style="fill: #9a5092"/>
   </g>
   <g id="patch_17">
    <path d="M 340.057886 298.736653 
L 353.92727 298.736653 
L 353.92727 139.016627 
L 340.057886 139.016627 
z
" clip-path="url(#p4a9e1dd155)" style="fill: #9a5092"/>
   </g>
   <g id="patch_18">
    <path d="M 409.404807 298.736653 
L 423.274191 298.736653 
L 423.274191 221.495856 
L 409.404807 221.495856 
z
" clip-path="url(#p4a9e1dd155)" style="fill: #9a5092"/>
   </g>
   <g id="matplotlib.axis_1">
    <g id="xtick_1">
     <g id="line2d_1">
      <defs>
       <path id="m1a59a3781e" d="M 0 0 
L 0 -3 
" style="stroke: #000000; stroke-width: 0.8"/>
      </defs>
      <g>
       <use xlink:href="#m1a59a3781e" x="194.429351" y="298.736653" style="stroke: #000000; stroke-width: 0.8"/>
      </g>
     </g>
     <g id="line2d_2">
      <defs>
       <path id="m9a686e0417" d="M 0 0 
L 0 3 
" style="stroke: #000000; stroke-width: 0.8"/>
      </defs>
      <g>
       <use xlink:href="#m9a686e0417" x="194.429351" y="49.256653" style="stroke: #000000; stroke-width: 0.8"/>
      </g>
     </g>
     <g id="text_1">
      <!-- $x_1$ -->
      <g transform="translate(165.638513 349.306916) scale(0.65 -0.65)">
       <defs>
        <path id="NimbusSanL-ReguItal-78" d="M 2240 1713 
L 3731 3360 
L 3110 3360 
L 2042 2129 
L 1478 3360 
L 883 3360 
L 1638 1712 
L 109 0 
L 736 0 
L 1850 1282 
L 2426 0 
L 3027 0 
L 2240 1713 
z
" transform="scale(0.015625)"/>
        <path id="NimbusSanL-Regu-31" d="M 1658 3238 
L 1658 0 
L 2221 0 
L 2221 4545 
L 1850 4545 
C 1651 3847 1523 3751 653 3642 
L 653 3238 
L 1658 3238 
z
" transform="scale(0.015625)"/>
       </defs>
       <use xlink:href="#NimbusSanL-ReguItal-78" transform="scale(0.996264)"/>
       <use xlink:href="#NimbusSanL-Regu-31" transform="translate(49.8132 -14.943915) scale(0.697382)"/>
      </g>
     </g>
    </g>
    <g id="xtick_2">
     <g id="line2d_3">
      <g>
       <use xlink:href="#m1a59a3781e" x="263.776272" y="298.736653" style="stroke: #000000; stroke-width: 0.8"/>
      </g>
     </g>
     <g id="line2d_4">
      <g>
       <use xlink:href="#m9a686e0417" x="263.776272" y="49.256653" style="stroke: #000000; stroke-width: 0.8"/>
      </g>
     </g>
     <g id="text_2">
      <!-- $v_1$ -->
      <g transform="translate(234.985434 349.306916) scale(0.65 -0.65)">
       <defs>
        <path id="NimbusSanL-ReguItal-76" d="M 1837 0 
L 3827 3359 
L 3245 3359 
L 1683 654 
L 1370 3359 
L 781 3359 
L 1254 0 
L 1837 0 
z
" transform="scale(0.015625)"/>
       </defs>
       <use xlink:href="#NimbusSanL-ReguItal-76" transform="scale(0.996264)"/>
       <use xlink:href="#NimbusSanL-Regu-31" transform="translate(49.8132 -14.943915) scale(0.697382)"/>
      </g>
     </g>
    </g>
    <g id="xtick_3">
     <g id="line2d_5">
      <g>
       <use xlink:href="#m1a59a3781e" x="333.123194" y="298.736653" style="stroke: #000000; stroke-width: 0.8"/>
      </g>
     </g>
     <g id="line2d_6">
      <g>
       <use xlink:href="#m9a686e0417" x="333.123194" y="49.256653" style="stroke: #000000; stroke-width: 0.8"/>
      </g>
     </g>
     <g id="text_3">
      <!-- $x_2$ -->
      <g transform="translate(304.332355 349.306916) scale(0.65 -0.65)">
       <defs>
        <path id="NimbusSanL-Regu-32" d="M 3238 558 
L 851 558 
C 909 930 1114 1167 1670 1494 
L 2310 1840 
C 2944 2186 3270 2653 3270 3211 
C 3270 3589 3117 3942 2848 4185 
C 2579 4429 2246 4544 1818 4544 
C 1242 4544 813 4339 563 3955 
C 403 3711 333 3429 320 2967 
L 883 2967 
C 902 3275 941 3461 1018 3608 
C 1165 3884 1459 4051 1798 4051 
C 2310 4051 2694 3685 2694 3198 
C 2694 2839 2483 2531 2080 2301 
L 1491 1968 
C 544 1430 269 1000 218 0 
L 3238 0 
L 3238 558 
z
" transform="scale(0.015625)"/>
       </defs>
       <use xlink:href="#NimbusSanL-ReguItal-78" transform="scale(0.996264)"/>
       <use xlink:href="#NimbusSanL-Regu-32" transform="translate(49.8132 -14.943915) scale(0.697382)"/>
      </g>
     </g>
    </g>
    <g id="xtick_4">
     <g id="line2d_7">
      <g>
       <use xlink:href="#m1a59a3781e" x="402.470115" y="298.736653" style="stroke: #000000; stroke-width: 0.8"/>
      </g>
     </g>
     <g id="line2d_8">
      <g>
       <use xlink:href="#m9a686e0417" x="402.470115" y="49.256653" style="stroke: #000000; stroke-width: 0.8"/>
      </g>
     </g>
     <g id="text_4">
      <!-- $v_2$ -->
      <g transform="translate(373.679276 349.306916) scale(0.65 -0.65)">
       <use xlink:href="#NimbusSanL-ReguItal-76" transform="scale(0.996264)"/>
       <use xlink:href="#NimbusSanL-Regu-32" transform="translate(49.8132 -14.943915) scale(0.697382)"/>
      </g>
     </g>
    </g>
    <g id="xtick_5">
     <g id="line2d_9">
      <defs>
       <path id="m9a55a42232" d="M 0 0 
L 0 -1.5 
" style="stroke: #000000; stroke-width: 0.4"/>
      </defs>
      <g>
       <use xlink:href="#m9a55a42232" x="152.821199" y="298.736653" style="stroke: #000000; stroke-width: 0.4"/>
      </g>
     </g>
     <g id="line2d_10">
      <defs>
       <path id="m83655ef453" d="M 0 0 
L 0 1.5 
" style="stroke: #000000; stroke-width: 0.4"/>
      </defs>
      <g>
       <use xlink:href="#m83655ef453" x="152.821199" y="49.256653" style="stroke: #000000; stroke-width: 0.4"/>
      </g>
     </g>
    </g>
    <g id="xtick_6">
     <g id="line2d_11">
      <g>
       <use xlink:href="#m9a55a42232" x="166.690583" y="298.736653" style="stroke: #000000; stroke-width: 0.4"/>
      </g>
     </g>
     <g id="line2d_12">
      <g>
       <use xlink:href="#m83655ef453" x="166.690583" y="49.256653" style="stroke: #000000; stroke-width: 0.4"/>
      </g>
     </g>
    </g>
    <g id="xtick_7">
     <g id="line2d_13">
      <g>
       <use xlink:href="#m9a55a42232" x="180.559967" y="298.736653" style="stroke: #000000; stroke-width: 0.4"/>
      </g>
     </g>
     <g id="line2d_14">
      <g>
       <use xlink:href="#m83655ef453" x="180.559967" y="49.256653" style="stroke: #000000; stroke-width: 0.4"/>
      </g>
     </g>
    </g>
    <g id="xtick_8">
     <g id="line2d_15">
      <g>
       <use xlink:href="#m9a55a42232" x="208.298736" y="298.736653" style="stroke: #000000; stroke-width: 0.4"/>
      </g>
     </g>
     <g id="line2d_16">
      <g>
       <use xlink:href="#m83655ef453" x="208.298736" y="49.256653" style="stroke: #000000; stroke-width: 0.4"/>
      </g>
     </g>
    </g>
    <g id="xtick_9">
     <g id="line2d_17">
      <g>
       <use xlink:href="#m9a55a42232" x="222.16812" y="298.736653" style="stroke: #000000; stroke-width: 0.4"/>
      </g>
     </g>
     <g id="line2d_18">
      <g>
       <use xlink:href="#m83655ef453" x="222.16812" y="49.256653" style="stroke: #000000; stroke-width: 0.4"/>
      </g>
     </g>
    </g>
    <g id="xtick_10">
     <g id="line2d_19">
      <g>
       <use xlink:href="#m9a55a42232" x="236.037504" y="298.736653" style="stroke: #000000; stroke-width: 0.4"/>
      </g>
     </g>
     <g id="line2d_20">
      <g>
       <use xlink:href="#m83655ef453" x="236.037504" y="49.256653" style="stroke: #000000; stroke-width: 0.4"/>
      </g>
     </g>
    </g>
    <g id="xtick_11">
     <g id="line2d_21">
      <g>
       <use xlink:href="#m9a55a42232" x="249.906888" y="298.736653" style="stroke: #000000; stroke-width: 0.4"/>
      </g>
     </g>
     <g id="line2d_22">
      <g>
       <use xlink:href="#m83655ef453" x="249.906888" y="49.256653" style="stroke: #000000; stroke-width: 0.4"/>
      </g>
     </g>
    </g>
    <g id="xtick_12">
     <g id="line2d_23">
      <g>
       <use xlink:href="#m9a55a42232" x="277.645657" y="298.736653" style="stroke: #000000; stroke-width: 0.4"/>
      </g>
     </g>
     <g id="line2d_24">
      <g>
       <use xlink:href="#m83655ef453" x="277.645657" y="49.256653" style="stroke: #000000; stroke-width: 0.4"/>
      </g>
     </g>
    </g>
    <g id="xtick_13">
     <g id="line2d_25">
      <g>
       <use xlink:href="#m9a55a42232" x="291.515041" y="298.736653" style="stroke: #000000; stroke-width: 0.4"/>
      </g>
     </g>
     <g id="line2d_26">
      <g>
       <use xlink:href="#m83655ef453" x="291.515041" y="49.256653" style="stroke: #000000; stroke-width: 0.4"/>
      </g>
     </g>
    </g>
    <g id="xtick_14">
     <g id="line2d_27">
      <g>
       <use xlink:href="#m9a55a42232" x="305.384425" y="298.736653" style="stroke: #000000; stroke-width: 0.4"/>
      </g>
     </g>
     <g id="line2d_28">
      <g>
       <use xlink:href="#m83655ef453" x="305.384425" y="49.256653" style="stroke: #000000; stroke-width: 0.4"/>
      </g>
     </g>
    </g>
    <g id="xtick_15">
     <g id="line2d_29">
      <g>
       <use xlink:href="#m9a55a42232" x="319.253809" y="298.736653" style="stroke: #000000; stroke-width: 0.4"/>
      </g>
     </g>
     <g id="line2d_30">
      <g>
       <use xlink:href="#m83655ef453" x="319.253809" y="49.256653" style="stroke: #000000; stroke-width: 0.4"/>
      </g>
     </g>
    </g>
    <g id="xtick_16">
     <g id="line2d_31">
      <g>
       <use xlink:href="#m9a55a42232" x="346.992578" y="298.736653" style="stroke: #000000; stroke-width: 0.4"/>
      </g>
     </g>
     <g id="line2d_32">
      <g>
       <use xlink:href="#m83655ef453" x="346.992578" y="49.256653" style="stroke: #000000; stroke-width: 0.4"/>
      </g>
     </g>
    </g>
    <g id="xtick_17">
     <g id="line2d_33">
      <g>
       <use xlink:href="#m9a55a42232" x="360.861962" y="298.736653" style="stroke: #000000; stroke-width: 0.4"/>
      </g>
     </g>
     <g id="line2d_34">
      <g>
       <use xlink:href="#m83655ef453" x="360.861962" y="49.256653" style="stroke: #000000; stroke-width: 0.4"/>
      </g>
     </g>
    </g>
    <g id="xtick_18">
     <g id="line2d_35">
      <g>
       <use xlink:href="#m9a55a42232" x="374.731346" y="298.736653" style="stroke: #000000; stroke-width: 0.4"/>
      </g>
     </g>
     <g id="line2d_36">
      <g>
       <use xlink:href="#m83655ef453" x="374.731346" y="49.256653" style="stroke: #000000; stroke-width: 0.4"/>
      </g>
     </g>
    </g>
    <g id="xtick_19">
     <g id="line2d_37">
      <g>
       <use xlink:href="#m9a55a42232" x="388.60073" y="298.736653" style="stroke: #000000; stroke-width: 0.4"/>
      </g>
     </g>
     <g id="line2d_38">
      <g>
       <use xlink:href="#m83655ef453" x="388.60073" y="49.256653" style="stroke: #000000; stroke-width: 0.4"/>
      </g>
     </g>
    </g>
    <g id="xtick_20">
     <g id="line2d_39">
      <g>
       <use xlink:href="#m9a55a42232" x="416.339499" y="298.736653" style="stroke: #000000; stroke-width: 0.4"/>
      </g>
     </g>
     <g id="line2d_40">
      <g>
       <use xlink:href="#m83655ef453" x="416.339499" y="49.256653" style="stroke: #000000; stroke-width: 0.4"/>
      </g>
     </g>
    </g>
    <g id="xtick_21">
     <g id="line2d_41">
      <g>
       <use xlink:href="#m9a55a42232" x="430.208883" y="298.736653" style="stroke: #000000; stroke-width: 0.4"/>
      </g>
     </g>
     <g id="line2d_42">
      <g>
       <use xlink:href="#m83655ef453" x="430.208883" y="49.256653" style="stroke: #000000; stroke-width: 0.4"/>
      </g>
     </g>
    </g>
   </g>
   <g id="matplotlib.axis_2">
    <g id="ytick_1">
     <g id="line2d_43">
      <defs>
       <path id="ma45c01fb0d" d="M 0 0 
L 3 0 
" style="stroke: #000000; stroke-width: 0.8"/>
      </defs>
      <g>
       <use xlink:href="#ma45c01fb0d" x="146.579976" y="298.736653" style="stroke: #000000; stroke-width: 0.8"/>
      </g>
     </g>
     <g id="line2d_44">
      <defs>
       <path id="m07eb543dde" d="M 0 0 
L -3 0 
" style="stroke: #000000; stroke-width: 0.8"/>
      </defs>
      <g>
       <use xlink:href="#m07eb543dde" x="436.450106" y="298.736653" style="stroke: #000000; stroke-width: 0.8"/>
      </g>
     </g>
     <g id="text_5">
      <!-- $\mathdefault{0.0}$ -->
      <g transform="translate(50.968946 321.221785) scale(0.65 -0.65)">
       <defs>
        <path id="NimbusSanL-Regu-30" d="M 1760 4544 
C 1338 4544 954 4360 717 4046 
C 422 3651 275 3044 275 2208 
C 275 683 787 -128 1760 -128 
C 2720 -128 3245 683 3245 2170 
C 3245 3050 3104 3638 2803 4046 
C 2566 4366 2189 4544 1760 4544 
z
M 1760 4044 
C 2368 4044 2669 3432 2669 2221 
C 2669 939 2374 340 1747 340 
C 1152 340 851 965 851 2202 
C 851 3438 1152 4044 1760 4044 
z
" transform="scale(0.015625)"/>
        <path id="NimbusSanL-Regu-2e" d="M 1222 667 
L 557 667 
L 557 0 
L 1222 0 
L 1222 667 
z
" transform="scale(0.015625)"/>
       </defs>
       <use xlink:href="#NimbusSanL-Regu-30" transform="scale(0.996264)"/>
       <use xlink:href="#NimbusSanL-Regu-2e" transform="translate(55.391677 0) scale(0.996264)"/>
       <use xlink:href="#NimbusSanL-Regu-30" transform="translate(83.086847 0) scale(0.996264)"/>
      </g>
     </g>
    </g>
    <g id="ytick_2">
     <g id="line2d_45">
      <g>
       <use xlink:href="#ma45c01fb0d" x="146.579976" y="238.920455" style="stroke: #000000; stroke-width: 0.8"/>
      </g>
     </g>
     <g id="line2d_46">
      <g>
       <use xlink:href="#m07eb543dde" x="436.450106" y="238.920455" style="stroke: #000000; stroke-width: 0.8"/>
      </g>
     </g>
     <g id="text_6">
      <!-- $\mathdefault{1.7}$ -->
      <g transform="translate(50.968946 261.405586) scale(0.65 -0.65)">
       <defs>
        <path id="NimbusSanL-Regu-37" d="M 3328 4525 
L 294 4525 
L 294 3968 
L 2746 3968 
C 1664 2418 1222 1466 883 -32 
L 1485 -32 
C 1734 1427 2304 2681 3328 4051 
L 3328 4525 
z
" transform="scale(0.015625)"/>
       </defs>
       <use xlink:href="#NimbusSanL-Regu-31" transform="scale(0.996264)"/>
       <use xlink:href="#NimbusSanL-Regu-2e" transform="translate(55.391677 0) scale(0.996264)"/>
       <use xlink:href="#NimbusSanL-Regu-37" transform="translate(83.086847 0) scale(0.996264)"/>
      </g>
     </g>
    </g>
    <g id="ytick_3">
     <g id="line2d_47">
      <g>
       <use xlink:href="#ma45c01fb0d" x="146.579976" y="179.104257" style="stroke: #000000; stroke-width: 0.8"/>
      </g>
     </g>
     <g id="line2d_48">
      <g>
       <use xlink:href="#m07eb543dde" x="436.450106" y="179.104257" style="stroke: #000000; stroke-width: 0.8"/>
      </g>
     </g>
     <g id="text_7">
      <!-- $\mathdefault{3.4}$ -->
      <g transform="translate(50.968946 201.589388) scale(0.65 -0.65)">
       <defs>
        <path id="NimbusSanL-Regu-33" d="M 1414 2112 
L 1485 2112 
L 1722 2112 
C 2342 2112 2662 1830 2662 1284 
C 2662 712 2310 372 1722 372 
C 1107 372 806 681 768 1345 
L 205 1345 
C 230 978 294 740 403 534 
C 634 97 1082 -128 1702 -128 
C 2637 -128 3238 431 3238 1293 
C 3238 1872 3014 2194 2470 2381 
C 2893 2546 3104 2862 3104 3311 
C 3104 4082 2586 4544 1722 4544 
C 806 4544 320 4050 301 3095 
L 864 3095 
C 870 3366 896 3517 966 3655 
C 1094 3900 1376 4051 1728 4051 
C 2227 4051 2528 3760 2528 3287 
C 2528 2971 2413 2781 2163 2681 
C 2010 2618 1811 2592 1414 2592 
L 1414 2112 
z
" transform="scale(0.015625)"/>
        <path id="NimbusSanL-Regu-34" d="M 2093 1088 
L 2093 0 
L 2656 0 
L 2656 1088 
L 3328 1088 
L 3328 1594 
L 2656 1594 
L 2656 4545 
L 2240 4545 
L 179 1684 
L 179 1088 
L 2093 1088 
z
M 2093 1594 
L 672 1594 
L 2093 3583 
L 2093 1594 
z
" transform="scale(0.015625)"/>
       </defs>
       <use xlink:href="#NimbusSanL-Regu-33" transform="scale(0.996264)"/>
       <use xlink:href="#NimbusSanL-Regu-2e" transform="translate(55.391677 0) scale(0.996264)"/>
       <use xlink:href="#NimbusSanL-Regu-34" transform="translate(83.086847 0) scale(0.996264)"/>
      </g>
     </g>
    </g>
    <g id="ytick_4">
     <g id="line2d_49">
      <g>
       <use xlink:href="#ma45c01fb0d" x="146.579976" y="119.288058" style="stroke: #000000; stroke-width: 0.8"/>
      </g>
     </g>
     <g id="line2d_50">
      <g>
       <use xlink:href="#m07eb543dde" x="436.450106" y="119.288058" style="stroke: #000000; stroke-width: 0.8"/>
      </g>
     </g>
     <g id="text_8">
      <!-- $\mathdefault{5.1}$ -->
      <g transform="translate(50.968946 141.773189) scale(0.65 -0.65)">
       <defs>
        <path id="NimbusSanL-Regu-35" d="M 3046 4544 
L 704 4544 
L 365 2086 
L 883 2086 
C 1146 2399 1363 2508 1715 2508 
C 2323 2508 2707 2092 2707 1421 
C 2707 768 2330 372 1715 372 
C 1222 372 922 621 787 1133 
L 224 1133 
C 301 762 365 582 499 415 
C 755 70 1216 -128 1728 -128 
C 2643 -128 3283 537 3283 1497 
C 3283 2394 2688 3008 1818 3008 
C 1498 3008 1242 2925 979 2732 
L 1158 3987 
L 3046 3987 
L 3046 4544 
z
" transform="scale(0.015625)"/>
       </defs>
       <use xlink:href="#NimbusSanL-Regu-35" transform="scale(0.996264)"/>
       <use xlink:href="#NimbusSanL-Regu-2e" transform="translate(55.391677 0) scale(0.996264)"/>
       <use xlink:href="#NimbusSanL-Regu-31" transform="translate(83.086847 0) scale(0.996264)"/>
      </g>
     </g>
    </g>
    <g id="ytick_5">
     <g id="line2d_51">
      <g>
       <use xlink:href="#ma45c01fb0d" x="146.579976" y="59.47186" style="stroke: #000000; stroke-width: 0.8"/>
      </g>
     </g>
     <g id="line2d_52">
      <g>
       <use xlink:href="#m07eb543dde" x="436.450106" y="59.47186" style="stroke: #000000; stroke-width: 0.8"/>
      </g>
     </g>
     <g id="text_9">
      <!-- $\mathdefault{6.8}$ -->
      <g transform="translate(50.968946 81.956991) scale(0.65 -0.65)">
       <defs>
        <path id="NimbusSanL-Regu-36" d="M 3187 3382 
C 3078 4111 2592 4544 1901 4544 
C 1402 4544 954 4302 685 3900 
C 403 3460 275 2904 275 2081 
C 275 1321 390 836 659 434 
C 902 69 1299 -128 1798 -128 
C 2662 -128 3283 518 3283 1415 
C 3283 2268 2707 2868 1894 2868 
C 1446 2868 1094 2695 851 2362 
C 858 3444 1216 4044 1862 4044 
C 2259 4044 2534 3803 2624 3382 
L 3187 3382 
z
M 1824 2368 
C 2368 2368 2707 1986 2707 1370 
C 2707 793 2323 372 1805 372 
C 1280 372 883 813 883 1402 
C 883 1973 1267 2368 1824 2368 
z
" transform="scale(0.015625)"/>
        <path id="NimbusSanL-Regu-38" d="M 2502 2399 
C 2970 2680 3123 2910 3123 3338 
C 3123 4046 2566 4544 1760 4544 
C 960 4544 397 4046 397 3338 
C 397 2917 550 2687 1011 2399 
C 493 2150 237 1774 237 1276 
C 237 446 864 -128 1760 -128 
C 2656 -128 3283 447 3283 1270 
C 3283 1774 3027 2150 2502 2399 
z
M 1760 4044 
C 2240 4044 2547 3764 2547 3325 
C 2547 2904 2234 2624 1760 2624 
C 1286 2624 973 2904 973 3331 
C 973 3764 1286 4044 1760 4044 
z
M 1760 2149 
C 2323 2149 2707 1792 2707 1263 
C 2707 729 2323 372 1747 372 
C 1197 372 813 735 813 1263 
C 813 1792 1197 2149 1760 2149 
z
" transform="scale(0.015625)"/>
       </defs>
       <use xlink:href="#NimbusSanL-Regu-36" transform="scale(0.996264)"/>
       <use xlink:href="#NimbusSanL-Regu-2e" transform="translate(55.391677 0) scale(0.996264)"/>
       <use xlink:href="#NimbusSanL-Regu-38" transform="translate(83.086847 0) scale(0.996264)"/>
      </g>
     </g>
    </g>
    <g id="ytick_6">
     <g id="line2d_53">
      <defs>
       <path id="m1becec75c5" d="M 0 0 
L 1.5 0 
" style="stroke: #000000; stroke-width: 0.4"/>
      </defs>
      <g>
       <use xlink:href="#m1becec75c5" x="146.579976" y="283.782604" style="stroke: #000000; stroke-width: 0.4"/>
      </g>
     </g>
     <g id="line2d_54">
      <defs>
       <path id="m6f1fc19c81" d="M 0 0 
L -1.5 0 
" style="stroke: #000000; stroke-width: 0.4"/>
      </defs>
      <g>
       <use xlink:href="#m6f1fc19c81" x="436.450106" y="283.782604" style="stroke: #000000; stroke-width: 0.4"/>
      </g>
     </g>
    </g>
    <g id="ytick_7">
     <g id="line2d_55">
      <g>
       <use xlink:href="#m1becec75c5" x="146.579976" y="268.828554" style="stroke: #000000; stroke-width: 0.4"/>
      </g>
     </g>
     <g id="line2d_56">
      <g>
       <use xlink:href="#m6f1fc19c81" x="436.450106" y="268.828554" style="stroke: #000000; stroke-width: 0.4"/>
      </g>
     </g>
    </g>
    <g id="ytick_8">
     <g id="line2d_57">
      <g>
       <use xlink:href="#m1becec75c5" x="146.579976" y="253.874505" style="stroke: #000000; stroke-width: 0.4"/>
      </g>
     </g>
     <g id="line2d_58">
      <g>
       <use xlink:href="#m6f1fc19c81" x="436.450106" y="253.874505" style="stroke: #000000; stroke-width: 0.4"/>
      </g>
     </g>
    </g>
    <g id="ytick_9">
     <g id="line2d_59">
      <g>
       <use xlink:href="#m1becec75c5" x="146.579976" y="223.966405" style="stroke: #000000; stroke-width: 0.4"/>
      </g>
     </g>
     <g id="line2d_60">
      <g>
       <use xlink:href="#m6f1fc19c81" x="436.450106" y="223.966405" style="stroke: #000000; stroke-width: 0.4"/>
      </g>
     </g>
    </g>
    <g id="ytick_10">
     <g id="line2d_61">
      <g>
       <use xlink:href="#m1becec75c5" x="146.579976" y="209.012356" style="stroke: #000000; stroke-width: 0.4"/>
      </g>
     </g>
     <g id="line2d_62">
      <g>
       <use xlink:href="#m6f1fc19c81" x="436.450106" y="209.012356" style="stroke: #000000; stroke-width: 0.4"/>
      </g>
     </g>
    </g>
    <g id="ytick_11">
     <g id="line2d_63">
      <g>
       <use xlink:href="#m1becec75c5" x="146.579976" y="194.058306" style="stroke: #000000; stroke-width: 0.4"/>
      </g>
     </g>
     <g id="line2d_64">
      <g>
       <use xlink:href="#m6f1fc19c81" x="436.450106" y="194.058306" style="stroke: #000000; stroke-width: 0.4"/>
      </g>
     </g>
    </g>
    <g id="ytick_12">
     <g id="line2d_65">
      <g>
       <use xlink:href="#m1becec75c5" x="146.579976" y="164.150207" style="stroke: #000000; stroke-width: 0.4"/>
      </g>
     </g>
     <g id="line2d_66">
      <g>
       <use xlink:href="#m6f1fc19c81" x="436.450106" y="164.150207" style="stroke: #000000; stroke-width: 0.4"/>
      </g>
     </g>
    </g>
    <g id="ytick_13">
     <g id="line2d_67">
      <g>
       <use xlink:href="#m1becec75c5" x="146.579976" y="149.196157" style="stroke: #000000; stroke-width: 0.4"/>
      </g>
     </g>
     <g id="line2d_68">
      <g>
       <use xlink:href="#m6f1fc19c81" x="436.450106" y="149.196157" style="stroke: #000000; stroke-width: 0.4"/>
      </g>
     </g>
    </g>
    <g id="ytick_14">
     <g id="line2d_69">
      <g>
       <use xlink:href="#m1becec75c5" x="146.579976" y="134.242108" style="stroke: #000000; stroke-width: 0.4"/>
      </g>
     </g>
     <g id="line2d_70">
      <g>
       <use xlink:href="#m6f1fc19c81" x="436.450106" y="134.242108" style="stroke: #000000; stroke-width: 0.4"/>
      </g>
     </g>
    </g>
    <g id="ytick_15">
     <g id="line2d_71">
      <g>
       <use xlink:href="#m1becec75c5" x="146.579976" y="104.334009" style="stroke: #000000; stroke-width: 0.4"/>
      </g>
     </g>
     <g id="line2d_72">
      <g>
       <use xlink:href="#m6f1fc19c81" x="436.450106" y="104.334009" style="stroke: #000000; stroke-width: 0.4"/>
      </g>
     </g>
    </g>
    <g id="ytick_16">
     <g id="line2d_73">
      <g>
       <use xlink:href="#m1becec75c5" x="146.579976" y="89.379959" style="stroke: #000000; stroke-width: 0.4"/>
      </g>
     </g>
     <g id="line2d_74">
      <g>
       <use xlink:href="#m6f1fc19c81" x="436.450106" y="89.379959" style="stroke: #000000; stroke-width: 0.4"/>
      </g>
     </g>
    </g>
    <g id="ytick_17">
     <g id="line2d_75">
      <g>
       <use xlink:href="#m1becec75c5" x="146.579976" y="74.425909" style="stroke: #000000; stroke-width: 0.4"/>
      </g>
     </g>
     <g id="line2d_76">
      <g>
       <use xlink:href="#m6f1fc19c81" x="436.450106" y="74.425909" style="stroke: #000000; stroke-width: 0.4"/>
      </g>
     </g>
    </g>
    <g id="text_10">
     <!-- RMSE -->
     <g transform="translate(35.155495 213.8906) rotate(-90) scale(0.3 -0.3)">
      <defs>
       <path id="CMR17-52" d="M 2509 2146 
C 3117 2268 3629 2676 3629 3186 
C 3629 3785 2950 4326 2054 4326 
L 333 4326 
L 333 4160 
C 774 4160 845 4160 845 3873 
L 845 415 
C 845 128 774 128 333 128 
L 333 -26 
C 518 -26 851 -26 1050 -26 
C 1248 -26 1581 -26 1766 -26 
L 1766 128 
C 1325 128 1254 128 1254 417 
L 1254 2112 
L 2003 2112 
C 2368 2112 2573 1964 2662 1881 
C 2918 1632 2918 1459 2918 1024 
C 2918 595 2918 377 3110 160 
C 3354 -102 3680 -128 3821 -128 
C 4294 -128 4365 396 4365 503 
C 4365 540 4365 585 4307 585 
C 4256 585 4250 547 4250 522 
C 4218 112 4032 -26 3834 -26 
C 3482 -26 3443 375 3405 764 
C 3386 898 3373 993 3360 1133 
C 3322 1452 3270 1917 2509 2146 
z
M 1984 2214 
L 1254 2214 
L 1254 3913 
C 1254 4129 1267 4160 1523 4160 
L 1990 4160 
C 2522 4160 3142 3977 3142 3190 
C 3142 2372 2464 2214 1984 2214 
z
" transform="scale(0.015625)"/>
       <path id="CMR17-4d" d="M 1338 4224 
C 1299 4320 1293 4320 1158 4320 
L 339 4320 
L 339 4160 
C 781 4160 851 4160 851 3875 
L 851 610 
C 851 451 851 153 339 153 
L 339 -13 
C 486 0 755 0 915 0 
C 1075 0 1344 0 1491 -13 
L 1491 153 
C 979 153 979 451 979 610 
L 979 4135 
L 986 4135 
L 2490 89 
C 2515 25 2528 -13 2579 -13 
C 2630 -13 2643 25 2669 89 
L 4186 4166 
L 4192 4166 
L 4192 438 
C 4192 153 4122 153 3680 153 
L 3680 -13 
C 3853 0 4198 0 4384 0 
C 4570 0 4922 0 5094 -13 
L 5094 153 
C 4653 153 4582 153 4582 438 
L 4582 3875 
C 4582 4160 4653 4160 5094 4160 
L 5094 4320 
L 4282 4320 
C 4147 4320 4141 4314 4102 4218 
L 2720 502 
L 1338 4224 
z
" transform="scale(0.015625)"/>
       <path id="CMR17-53" d="M 2803 4290 
C 2803 4404 2797 4411 2758 4411 
C 2720 4411 2707 4385 2682 4328 
L 2490 3907 
C 2246 4257 1875 4416 1472 4416 
C 819 4416 294 3901 294 3253 
C 294 3056 339 2776 557 2510 
C 794 2218 1018 2167 1530 2033 
C 1722 1982 2042 1899 2106 1874 
C 2470 1722 2662 1341 2662 985 
C 2662 527 2336 38 1779 38 
C 1094 38 454 419 410 1311 
C 403 1413 397 1419 352 1419 
C 301 1419 294 1413 294 1285 
L 294 -1 
C 294 -115 301 -122 339 -122 
C 384 -122 397 -90 486 108 
C 493 127 493 140 614 381 
C 934 -39 1472 -128 1779 -128 
C 2477 -128 2970 451 2970 1124 
C 2970 1454 2848 1708 2778 1823 
C 2509 2230 2221 2306 1914 2382 
C 1869 2402 1856 2402 1498 2490 
C 1152 2579 1005 2624 845 2796 
C 666 2992 602 3196 602 3399 
C 602 3812 934 4263 1478 4263 
C 2157 4263 2579 3786 2675 2993 
C 2694 2878 2701 2872 2746 2872 
C 2803 2872 2803 2891 2803 2999 
L 2803 4290 
z
" transform="scale(0.015625)"/>
       <path id="CMR17-45" d="M 3885 1615 
L 3770 1615 
C 3629 676 3546 166 2419 166 
L 1530 166 
C 1274 166 1261 197 1261 414 
L 1261 2176 
L 1862 2176 
C 2464 2176 2522 1960 2522 1430 
L 2637 1430 
L 2637 3081 
L 2522 3081 
C 2522 2557 2464 2342 1862 2342 
L 1261 2342 
L 1261 3913 
C 1261 4128 1274 4160 1530 4160 
L 2406 4160 
C 3398 4160 3514 3769 3603 2929 
L 3718 2929 
L 3565 4325 
L 326 4325 
L 326 4160 
C 768 4160 838 4160 838 3874 
L 838 451 
C 838 166 768 166 326 166 
L 326 0 
L 3654 0 
L 3885 1615 
z
" transform="scale(0.015625)"/>
      </defs>
      <use xlink:href="#CMR17-52" transform="scale(0.996264)"/>
      <use xlink:href="#CMR17-4d" transform="translate(67.791102 0) scale(0.996264)"/>
      <use xlink:href="#CMR17-53" transform="translate(152.478043 0) scale(0.996264)"/>
      <use xlink:href="#CMR17-45" transform="translate(203.373412 0) scale(0.996264)"/>
     </g>
    </g>
    <g id="text_11">
     <!-- $\times\mathdefault{10^{−2}}\mathdefault{}$ -->
     <g transform="translate(132.086469 46.256653) scale(0.4 -0.4)">
      <defs>
       <path id="CMSY10-2" d="M 2490 1785 
L 1210 3059 
C 1133 3136 1120 3148 1069 3148 
C 1005 3148 941 3091 941 3020 
C 941 2976 954 2963 1024 2892 
L 2304 1606 
L 1024 320 
C 954 249 941 236 941 192 
C 941 121 1005 64 1069 64 
C 1120 64 1133 76 1210 153 
L 2483 1427 
L 3808 102 
C 3821 96 3866 64 3904 64 
C 3981 64 4032 121 4032 192 
C 4032 204 4032 230 4013 262 
C 4006 275 2989 1280 2669 1606 
L 3840 2777 
C 3872 2816 3968 2899 4000 2937 
C 4006 2950 4032 2976 4032 3020 
C 4032 3091 3981 3148 3904 3148 
C 3853 3148 3827 3123 3757 3052 
L 2490 1785 
z
" transform="scale(0.015625)"/>
       <path id="CMSY10-0" d="M 4218 1472 
C 4326 1472 4442 1472 4442 1600 
C 4442 1728 4326 1728 4218 1728 
L 755 1728 
C 646 1728 531 1728 531 1600 
C 531 1472 646 1472 755 1472 
L 4218 1472 
z
" transform="scale(0.015625)"/>
      </defs>
      <use xlink:href="#CMSY10-2" transform="scale(0.996264)"/>
      <use xlink:href="#NimbusSanL-Regu-31" transform="translate(77.487468 0) scale(0.996264)"/>
      <use xlink:href="#NimbusSanL-Regu-30" transform="translate(132.879145 0) scale(0.996264)"/>
      <use xlink:href="#CMSY10-0" transform="translate(188.270822 36.153639) scale(0.697382)"/>
      <use xlink:href="#NimbusSanL-Regu-32" transform="translate(242.511815 36.153639) scale(0.697382)"/>
     </g>
    </g>
   </g>
   <g id="LineCollection_1">
    <path d="M 166.690583 116.765359 
L 166.690583 88.82227 
" clip-path="url(#p4a9e1dd155)" style="fill: none; stroke: #000000; stroke-width: 1.4"/>
    <path d="M 236.037504 94.484674 
L 236.037504 61.136653 
" clip-path="url(#p4a9e1dd155)" style="fill: none; stroke: #000000; stroke-width: 1.4"/>
    <path d="M 305.384425 116.238095 
L 305.384425 98.212875 
" clip-path="url(#p4a9e1dd155)" style="fill: none; stroke: #000000; stroke-width: 1.4"/>
    <path d="M 374.731346 189.450259 
L 374.731346 171.850136 
" clip-path="url(#p4a9e1dd155)" style="fill: none; stroke: #000000; stroke-width: 1.4"/>
   </g>
   <g id="line2d_77">
    <defs>
     <path id="mfe8499a638" d="M 5 0 
L -5 -0 
" style="stroke: #000000; stroke-width: 2"/>
    </defs>
    <g clip-path="url(#p4a9e1dd155)">
     <use xlink:href="#mfe8499a638" x="166.690583" y="116.765359" style="stroke: #000000; stroke-width: 2"/>
     <use xlink:href="#mfe8499a638" x="236.037504" y="94.484674" style="stroke: #000000; stroke-width: 2"/>
     <use xlink:href="#mfe8499a638" x="305.384425" y="116.238095" style="stroke: #000000; stroke-width: 2"/>
     <use xlink:href="#mfe8499a638" x="374.731346" y="189.450259" style="stroke: #000000; stroke-width: 2"/>
    </g>
   </g>
   <g id="line2d_78">
    <g clip-path="url(#p4a9e1dd155)">
     <use xlink:href="#mfe8499a638" x="166.690583" y="88.82227" style="stroke: #000000; stroke-width: 2"/>
     <use xlink:href="#mfe8499a638" x="236.037504" y="61.136653" style="stroke: #000000; stroke-width: 2"/>
     <use xlink:href="#mfe8499a638" x="305.384425" y="98.212875" style="stroke: #000000; stroke-width: 2"/>
     <use xlink:href="#mfe8499a638" x="374.731346" y="171.850136" style="stroke: #000000; stroke-width: 2"/>
    </g>
   </g>
   <g id="LineCollection_2">
    <path d="M 180.559967 120.294072 
L 180.559967 93.342798 
" clip-path="url(#p4a9e1dd155)" style="fill: none; stroke: #000000; stroke-width: 1.4"/>
    <path d="M 249.906888 114.180966 
L 249.906888 84.044768 
" clip-path="url(#p4a9e1dd155)" style="fill: none; stroke: #000000; stroke-width: 1.4"/>
    <path d="M 319.253809 102.369102 
L 319.253809 82.195153 
" clip-path="url(#p4a9e1dd155)" style="fill: none; stroke: #000000; stroke-width: 1.4"/>
    <path d="M 388.60073 174.496564 
L 388.60073 155.545909 
" clip-path="url(#p4a9e1dd155)" style="fill: none; stroke: #000000; stroke-width: 1.4"/>
   </g>
   <g id="line2d_79">
    <g clip-path="url(#p4a9e1dd155)">
     <use xlink:href="#mfe8499a638" x="180.559967" y="120.294072" style="stroke: #000000; stroke-width: 2"/>
     <use xlink:href="#mfe8499a638" x="249.906888" y="114.180966" style="stroke: #000000; stroke-width: 2"/>
     <use xlink:href="#mfe8499a638" x="319.253809" y="102.369102" style="stroke: #000000; stroke-width: 2"/>
     <use xlink:href="#mfe8499a638" x="388.60073" y="174.496564" style="stroke: #000000; stroke-width: 2"/>
    </g>
   </g>
   <g id="line2d_80">
    <g clip-path="url(#p4a9e1dd155)">
     <use xlink:href="#mfe8499a638" x="180.559967" y="93.342798" style="stroke: #000000; stroke-width: 2"/>
     <use xlink:href="#mfe8499a638" x="249.906888" y="84.044768" style="stroke: #000000; stroke-width: 2"/>
     <use xlink:href="#mfe8499a638" x="319.253809" y="82.195153" style="stroke: #000000; stroke-width: 2"/>
     <use xlink:href="#mfe8499a638" x="388.60073" y="155.545909" style="stroke: #000000; stroke-width: 2"/>
    </g>
   </g>
   <g id="LineCollection_3">
    <path d="M 194.429351 214.106168 
L 194.429351 204.582781 
" clip-path="url(#p4a9e1dd155)" style="fill: none; stroke: #000000; stroke-width: 1.4"/>
    <path d="M 263.776272 247.188573 
L 263.776272 239.137713 
" clip-path="url(#p4a9e1dd155)" style="fill: none; stroke: #000000; stroke-width: 1.4"/>
    <path d="M 333.123194 157.521005 
L 333.123194 144.980313 
" clip-path="url(#p4a9e1dd155)" style="fill: none; stroke: #000000; stroke-width: 1.4"/>
    <path d="M 402.470115 241.69905 
L 402.470115 232.875159 
" clip-path="url(#p4a9e1dd155)" style="fill: none; stroke: #000000; stroke-width: 1.4"/>
   </g>
   <g id="line2d_81">
    <g clip-path="url(#p4a9e1dd155)">
     <use xlink:href="#mfe8499a638" x="194.429351" y="214.106168" style="stroke: #000000; stroke-width: 2"/>
     <use xlink:href="#mfe8499a638" x="263.776272" y="247.188573" style="stroke: #000000; stroke-width: 2"/>
     <use xlink:href="#mfe8499a638" x="333.123194" y="157.521005" style="stroke: #000000; stroke-width: 2"/>
     <use xlink:href="#mfe8499a638" x="402.470115" y="241.69905" style="stroke: #000000; stroke-width: 2"/>
    </g>
   </g>
   <g id="line2d_82">
    <g clip-path="url(#p4a9e1dd155)">
     <use xlink:href="#mfe8499a638" x="194.429351" y="204.582781" style="stroke: #000000; stroke-width: 2"/>
     <use xlink:href="#mfe8499a638" x="263.776272" y="239.137713" style="stroke: #000000; stroke-width: 2"/>
     <use xlink:href="#mfe8499a638" x="333.123194" y="144.980313" style="stroke: #000000; stroke-width: 2"/>
     <use xlink:href="#mfe8499a638" x="402.470115" y="232.875159" style="stroke: #000000; stroke-width: 2"/>
    </g>
   </g>
   <g id="LineCollection_4">
    <path d="M 208.298736 206.859607 
L 208.298736 196.316559 
" clip-path="url(#p4a9e1dd155)" style="fill: none; stroke: #000000; stroke-width: 1.4"/>
    <path d="M 277.645657 245.792964 
L 277.645657 237.414518 
" clip-path="url(#p4a9e1dd155)" style="fill: none; stroke: #000000; stroke-width: 1.4"/>
    <path d="M 346.992578 146.052767 
L 346.992578 131.980488 
" clip-path="url(#p4a9e1dd155)" style="fill: none; stroke: #000000; stroke-width: 1.4"/>
    <path d="M 416.339499 226.722885 
L 416.339499 216.268826 
" clip-path="url(#p4a9e1dd155)" style="fill: none; stroke: #000000; stroke-width: 1.4"/>
   </g>
   <g id="line2d_83">
    <g clip-path="url(#p4a9e1dd155)">
     <use xlink:href="#mfe8499a638" x="208.298736" y="206.859607" style="stroke: #000000; stroke-width: 2"/>
     <use xlink:href="#mfe8499a638" x="277.645657" y="245.792964" style="stroke: #000000; stroke-width: 2"/>
     <use xlink:href="#mfe8499a638" x="346.992578" y="146.052767" style="stroke: #000000; stroke-width: 2"/>
     <use xlink:href="#mfe8499a638" x="416.339499" y="226.722885" style="stroke: #000000; stroke-width: 2"/>
    </g>
   </g>
   <g id="line2d_84">
    <g clip-path="url(#p4a9e1dd155)">
     <use xlink:href="#mfe8499a638" x="208.298736" y="196.316559" style="stroke: #000000; stroke-width: 2"/>
     <use xlink:href="#mfe8499a638" x="277.645657" y="237.414518" style="stroke: #000000; stroke-width: 2"/>
     <use xlink:href="#mfe8499a638" x="346.992578" y="131.980488" style="stroke: #000000; stroke-width: 2"/>
     <use xlink:href="#mfe8499a638" x="416.339499" y="216.268826" style="stroke: #000000; stroke-width: 2"/>
    </g>
   </g>
   <g id="patch_19">
    <path d="M 146.579976 298.736653 
L 146.579976 49.256653 
" style="fill: none; stroke: #000000; stroke-width: 0.5; stroke-linejoin: miter; stroke-linecap: square"/>
   </g>
   <g id="patch_20">
    <path d="M 436.450106 298.736653 
L 436.450106 49.256653 
" style="fill: none; stroke: #000000; stroke-width: 0.5; stroke-linejoin: miter; stroke-linecap: square"/>
   </g>
   <g id="patch_21">
    <path d="M 146.579976 298.736653 
L 436.450106 298.736653 
" style="fill: none; stroke: #000000; stroke-width: 0.5; stroke-linejoin: miter; stroke-linecap: square"/>
   </g>
   <g id="patch_22">
    <path d="M 146.579976 49.256653 
L 436.450106 49.256653 
" style="fill: none; stroke: #000000; stroke-width: 0.5; stroke-linejoin: miter; stroke-linecap: square"/>
   </g>
  </g>
  <g id="axes_2">
   <g id="patch_23">
    <path d="M 552.659976 301.976653 
L 702.419976 301.976653 
L 702.419976 156.176653 
L 552.659976 156.176653 
z
" style="fill: #ffffff"/>
   </g>
   <g id="patch_24">
    <path d="M 559.467249 19355.882783 
L 593.503612 19355.882783 
L 593.503612 163.157154 
L 559.467249 163.157154 
z
" clip-path="url(#p38391e3d13)" style="fill: #0b63a0"/>
   </g>
   <g id="patch_25">
    <path d="M 593.503612 19355.882783 
L 627.539976 19355.882783 
L 627.539976 163.701058 
L 593.503612 163.701058 
z
" clip-path="url(#p38391e3d13)" style="fill: #ffae0d"/>
   </g>
   <g id="patch_26">
    <path d="M 627.539976 19355.882783 
L 661.57634 19355.882783 
L 661.57634 295.298668 
L 627.539976 295.298668 
z
" clip-path="url(#p38391e3d13)" style="fill: #d62728"/>
   </g>
   <g id="patch_27">
    <path d="M 661.57634 19355.882783 
L 695.612703 19355.882783 
L 695.612703 295.297041 
L 661.57634 295.297041 
z
" clip-path="url(#p38391e3d13)" style="fill: #9a5092"/>
   </g>
   <g id="matplotlib.axis_3">
    <g id="xtick_22">
     <g id="line2d_85">
      <g>
       <use xlink:href="#m1a59a3781e" x="627.539976" y="301.976653" style="stroke: #000000; stroke-width: 0.8"/>
      </g>
     </g>
     <g id="line2d_86">
      <g>
       <use xlink:href="#m9a686e0417" x="627.539976" y="156.176653" style="stroke: #000000; stroke-width: 0.8"/>
      </g>
     </g>
     <g id="text_12">
      <!-- E -->
      <g transform="translate(615.022714 335.250662) scale(0.4 -0.4)">
       <use xlink:href="#CMR17-45" transform="scale(0.996264)"/>
      </g>
     </g>
    </g>
   </g>
   <g id="matplotlib.axis_4">
    <g id="ytick_18">
     <g id="line2d_87">
      <g>
       <use xlink:href="#ma45c01fb0d" x="552.659976" y="180.857197" style="stroke: #000000; stroke-width: 0.8"/>
      </g>
     </g>
     <g id="line2d_88">
      <g>
       <use xlink:href="#m07eb543dde" x="702.419976" y="180.857197" style="stroke: #000000; stroke-width: 0.8"/>
      </g>
     </g>
     <g id="text_13">
      <!-- $10^{-1}$ -->
      <g transform="translate(485.920505 191.234944) scale(0.3 -0.3)">
       <use xlink:href="#NimbusSanL-Regu-31" transform="scale(0.996264)"/>
       <use xlink:href="#NimbusSanL-Regu-30" transform="translate(55.391677 0) scale(0.996264)"/>
       <use xlink:href="#CMSY10-0" transform="translate(110.783354 36.153639) scale(0.697382)"/>
       <use xlink:href="#NimbusSanL-Regu-31" transform="translate(165.024347 36.153639) scale(0.697382)"/>
      </g>
     </g>
    </g>
    <g id="ytick_19">
     <g id="line2d_89">
      <g>
       <use xlink:href="#ma45c01fb0d" x="552.659976" y="219.245636" style="stroke: #000000; stroke-width: 0.8"/>
      </g>
     </g>
     <g id="line2d_90">
      <g>
       <use xlink:href="#m07eb543dde" x="702.419976" y="219.245636" style="stroke: #000000; stroke-width: 0.8"/>
      </g>
     </g>
     <g id="text_14">
      <!-- $10^{-3}$ -->
      <g transform="translate(485.920505 229.623384) scale(0.3 -0.3)">
       <use xlink:href="#NimbusSanL-Regu-31" transform="scale(0.996264)"/>
       <use xlink:href="#NimbusSanL-Regu-30" transform="translate(55.391677 0) scale(0.996264)"/>
       <use xlink:href="#CMSY10-0" transform="translate(110.783354 36.153639) scale(0.697382)"/>
       <use xlink:href="#NimbusSanL-Regu-33" transform="translate(165.024347 36.153639) scale(0.697382)"/>
      </g>
     </g>
    </g>
    <g id="ytick_20">
     <g id="line2d_91">
      <g>
       <use xlink:href="#ma45c01fb0d" x="552.659976" y="257.634076" style="stroke: #000000; stroke-width: 0.8"/>
      </g>
     </g>
     <g id="line2d_92">
      <g>
       <use xlink:href="#m07eb543dde" x="702.419976" y="257.634076" style="stroke: #000000; stroke-width: 0.8"/>
      </g>
     </g>
     <g id="text_15">
      <!-- $10^{-5}$ -->
      <g transform="translate(485.920505 268.011824) scale(0.3 -0.3)">
       <use xlink:href="#NimbusSanL-Regu-31" transform="scale(0.996264)"/>
       <use xlink:href="#NimbusSanL-Regu-30" transform="translate(55.391677 0) scale(0.996264)"/>
       <use xlink:href="#CMSY10-0" transform="translate(110.783354 36.153639) scale(0.697382)"/>
       <use xlink:href="#NimbusSanL-Regu-35" transform="translate(165.024347 36.153639) scale(0.697382)"/>
      </g>
     </g>
    </g>
    <g id="ytick_21">
     <g id="line2d_93">
      <g>
       <use xlink:href="#ma45c01fb0d" x="552.659976" y="296.022516" style="stroke: #000000; stroke-width: 0.8"/>
      </g>
     </g>
     <g id="line2d_94">
      <g>
       <use xlink:href="#m07eb543dde" x="702.419976" y="296.022516" style="stroke: #000000; stroke-width: 0.8"/>
      </g>
     </g>
     <g id="text_16">
      <!-- $10^{-7}$ -->
      <g transform="translate(485.920505 306.400263) scale(0.3 -0.3)">
       <use xlink:href="#NimbusSanL-Regu-31" transform="scale(0.996264)"/>
       <use xlink:href="#NimbusSanL-Regu-30" transform="translate(55.391677 0) scale(0.996264)"/>
       <use xlink:href="#CMSY10-0" transform="translate(110.783354 36.153639) scale(0.697382)"/>
       <use xlink:href="#NimbusSanL-Regu-37" transform="translate(165.024347 36.153639) scale(0.697382)"/>
      </g>
     </g>
    </g>
    <g id="text_17">
     <!-- RMSE (J) -->
     <g transform="translate(474.473532 291.111988) rotate(-90) scale(0.3 -0.3)">
      <defs>
       <path id="CMR17-28" d="M 1958 -1561 
C 1958 -1555 1958 -1542 1939 -1523 
C 1645 -1224 858 -407 858 1581 
C 858 3569 1632 4379 1946 4697 
C 1946 4704 1958 4717 1958 4736 
C 1958 4755 1939 4768 1914 4768 
C 1843 4768 1299 4296 986 3594 
C 666 2887 576 2199 576 1588 
C 576 1128 621 351 1005 -471 
C 1312 -1135 1837 -1600 1914 -1600 
C 1946 -1600 1958 -1587 1958 -1561 
z
" transform="scale(0.015625)"/>
       <path id="CMR17-4a" d="M 1888 910 
C 1888 324 1568 -26 1242 -26 
C 1075 -26 691 49 525 431 
C 550 425 582 418 608 418 
C 730 418 883 501 883 692 
C 883 845 774 960 614 960 
C 461 960 339 865 339 682 
C 339 258 730 -128 1254 -128 
C 1754 -128 2214 229 2291 764 
C 2298 809 2298 821 2298 1038 
L 2298 3715 
C 2298 3823 2298 4001 2310 4039 
C 2336 4160 2483 4160 2682 4160 
L 2682 4320 
C 2669 4320 2214 4320 2054 4320 
C 1786 4320 1491 4320 1222 4320 
L 1222 4160 
L 1376 4160 
C 1875 4160 1888 4090 1888 3861 
L 1888 910 
z
" transform="scale(0.015625)"/>
       <path id="CMR17-29" d="M 1683 1581 
C 1683 2040 1638 2817 1254 3639 
C 947 4303 422 4768 346 4768 
C 326 4768 301 4761 301 4729 
C 301 4717 307 4710 314 4697 
C 621 4378 1402 3568 1402 1584 
C 1402 -407 627 -1217 314 -1537 
C 307 -1549 301 -1556 301 -1568 
C 301 -1600 326 -1600 346 -1600 
C 416 -1600 960 -1128 1274 -426 
C 1594 281 1683 969 1683 1581 
z
" transform="scale(0.015625)"/>
      </defs>
      <use xlink:href="#CMR17-52" transform="scale(0.996264)"/>
      <use xlink:href="#CMR17-4d" transform="translate(67.791102 0) scale(0.996264)"/>
      <use xlink:href="#CMR17-53" transform="translate(152.478043 0) scale(0.996264)"/>
      <use xlink:href="#CMR17-45" transform="translate(203.373412 0) scale(0.996264)"/>
      <use xlink:href="#CMR17-28" transform="translate(296.035679 0) scale(0.996264)"/>
      <use xlink:href="#CMR17-4a" transform="translate(331.316447 0) scale(0.996264)"/>
      <use xlink:href="#CMR17-29" transform="translate(378.288237 0) scale(0.996264)"/>
     </g>
    </g>
   </g>
   <g id="LineCollection_5">
    <path d="M 576.485431 163.526014 
L 576.485431 162.803926 
" clip-path="url(#p38391e3d13)" style="fill: none; stroke: #000000; stroke-width: 1.4"/>
   </g>
   <g id="line2d_95">
    <g clip-path="url(#p38391e3d13)">
     <use xlink:href="#mfe8499a638" x="576.485431" y="163.526014" style="stroke: #000000; stroke-width: 2"/>
    </g>
   </g>
   <g id="line2d_96">
    <g clip-path="url(#p38391e3d13)">
     <use xlink:href="#mfe8499a638" x="576.485431" y="162.803926" style="stroke: #000000; stroke-width: 2"/>
    </g>
   </g>
   <g id="LineCollection_6">
    <path d="M 610.521794 164.072301 
L 610.521794 163.345646 
" clip-path="url(#p38391e3d13)" style="fill: none; stroke: #000000; stroke-width: 1.4"/>
   </g>
   <g id="line2d_97">
    <g clip-path="url(#p38391e3d13)">
     <use xlink:href="#mfe8499a638" x="610.521794" y="164.072301" style="stroke: #000000; stroke-width: 2"/>
    </g>
   </g>
   <g id="line2d_98">
    <g clip-path="url(#p38391e3d13)">
     <use xlink:href="#mfe8499a638" x="610.521794" y="163.345646" style="stroke: #000000; stroke-width: 2"/>
    </g>
   </g>
   <g id="LineCollection_7">
    <path d="M 644.558158 295.349381 
L 644.558158 295.248261 
" clip-path="url(#p38391e3d13)" style="fill: none; stroke: #000000; stroke-width: 1.4"/>
   </g>
   <g id="line2d_99">
    <g clip-path="url(#p38391e3d13)">
     <use xlink:href="#mfe8499a638" x="644.558158" y="295.349381" style="stroke: #000000; stroke-width: 2"/>
    </g>
   </g>
   <g id="line2d_100">
    <g clip-path="url(#p38391e3d13)">
     <use xlink:href="#mfe8499a638" x="644.558158" y="295.248261" style="stroke: #000000; stroke-width: 2"/>
    </g>
   </g>
   <g id="LineCollection_8">
    <path d="M 678.594521 295.347717 
L 678.594521 295.246671 
" clip-path="url(#p38391e3d13)" style="fill: none; stroke: #000000; stroke-width: 1.4"/>
   </g>
   <g id="line2d_101">
    <g clip-path="url(#p38391e3d13)">
     <use xlink:href="#mfe8499a638" x="678.594521" y="295.347717" style="stroke: #000000; stroke-width: 2"/>
    </g>
   </g>
   <g id="line2d_102">
    <g clip-path="url(#p38391e3d13)">
     <use xlink:href="#mfe8499a638" x="678.594521" y="295.246671" style="stroke: #000000; stroke-width: 2"/>
    </g>
   </g>
   <g id="patch_28">
    <path d="M 552.659976 301.976653 
L 552.659976 156.176653 
" style="fill: none; stroke: #000000; stroke-width: 0.5; stroke-linejoin: miter; stroke-linecap: square"/>
   </g>
   <g id="patch_29">
    <path d="M 702.419976 301.976653 
L 702.419976 156.176653 
" style="fill: none; stroke: #000000; stroke-width: 0.5; stroke-linejoin: miter; stroke-linecap: square"/>
   </g>
   <g id="patch_30">
    <path d="M 552.659976 301.976653 
L 702.419976 301.976653 
" style="fill: none; stroke: #000000; stroke-width: 0.5; stroke-linejoin: miter; stroke-linecap: square"/>
   </g>
   <g id="patch_31">
    <path d="M 552.659976 156.176653 
L 702.419976 156.176653 
" style="fill: none; stroke: #000000; stroke-width: 0.5; stroke-linejoin: miter; stroke-linecap: square"/>
   </g>
  </g>
  <g id="legend_1">
   <g id="patch_32">
    <path d="M 449.978556 135.953307 
L 701.499976 135.953307 
Q 706.699976 135.953307 706.699976 130.753307 
L 706.699976 19.6 
Q 706.699976 14.4 701.499976 14.4 
L 449.978556 14.4 
Q 444.778556 14.4 444.778556 19.6 
L 444.778556 130.753307 
Q 444.778556 135.953307 449.978556 135.953307 
z
" style="fill: #ffffff; opacity: 0.8; stroke: #cccccc; stroke-width: 0.24; stroke-linejoin: miter"/>
   </g>
   <g id="patch_33">
    <path d="M 455.178556 43 
L 507.178556 43 
L 507.178556 24.8 
L 455.178556 24.8 
z
" style="fill: #0b63a0"/>
   </g>
   <g id="text_18">
    <!-- NN -->
    <g transform="translate(520.178556 43) scale(0.26 -0.26)">
     <defs>
      <path id="CMR17-4e" d="M 1312 4250 
C 1267 4320 1261 4320 1139 4320 
L 326 4320 
L 326 4160 
L 448 4160 
C 704 4160 819 4129 838 4122 
L 838 610 
C 838 451 838 153 326 153 
L 326 -13 
C 474 0 742 0 902 0 
C 1062 0 1331 0 1478 -13 
L 1478 153 
C 966 153 966 451 966 610 
L 966 4033 
C 1011 3995 1011 3982 1056 3919 
L 3430 76 
C 3475 0 3494 0 3526 0 
C 3590 0 3590 19 3590 139 
L 3590 3705 
C 3590 3863 3590 4160 4102 4160 
L 4102 4326 
C 3955 4320 3686 4320 3526 4320 
C 3366 4320 3098 4320 2950 4326 
L 2950 4160 
C 3462 4160 3462 3862 3462 3703 
L 3462 763 
L 1312 4250 
z
" transform="scale(0.015625)"/>
     </defs>
     <use xlink:href="#CMR17-4e" transform="scale(0.996264)"/>
     <use xlink:href="#CMR17-4e" transform="translate(69.07243 0) scale(0.996264)"/>
    </g>
   </g>
   <g id="patch_34">
    <path d="M 455.178556 68.838327 
L 507.178556 68.838327 
L 507.178556 50.638327 
L 455.178556 50.638327 
z
" style="fill: #ffae0d"/>
   </g>
   <g id="text_19">
    <!-- PINN -->
    <g transform="translate(520.178556 68.838327) scale(0.26 -0.26)">
     <defs>
      <path id="CMR17-50" d="M 1267 2042 
L 2291 2042 
C 3117 2042 3718 2578 3718 3184 
C 3718 3791 3130 4352 2291 4352 
L 333 4352 
L 333 4186 
C 774 4186 845 4186 845 3899 
L 845 446 
C 845 160 774 160 333 160 
L 333 0 
C 518 0 858 0 1056 0 
C 1254 0 1594 0 1779 0 
L 1779 160 
C 1338 160 1267 160 1267 446 
L 1267 2042 
z
M 1254 2176 
L 1254 3938 
C 1254 4155 1267 4186 1523 4186 
L 2170 4186 
C 2995 4186 3232 3714 3232 3184 
C 3232 2604 2950 2176 2170 2176 
L 1254 2176 
z
" transform="scale(0.015625)"/>
      <path id="CMR17-49" d="M 1261 3905 
C 1261 4192 1338 4192 1798 4192 
L 1798 4352 
C 1594 4352 1267 4352 1050 4352 
C 832 4352 506 4352 301 4352 
L 301 4192 
C 762 4192 838 4192 838 3905 
L 838 447 
C 838 160 762 160 301 160 
L 301 0 
C 506 0 832 0 1050 0 
C 1267 0 1594 0 1798 0 
L 1798 160 
C 1338 160 1261 160 1261 447 
L 1261 3905 
z
" transform="scale(0.015625)"/>
     </defs>
     <use xlink:href="#CMR17-50" transform="scale(0.996264)"/>
     <use xlink:href="#CMR17-49" transform="translate(62.586301 0) scale(0.996264)"/>
     <use xlink:href="#CMR17-4e" transform="translate(95.22471 0) scale(0.996264)"/>
     <use xlink:href="#CMR17-4e" transform="translate(164.29714 0) scale(0.996264)"/>
    </g>
   </g>
   <g id="patch_35">
    <path d="M 455.178556 94.676653 
L 507.178556 94.676653 
L 507.178556 76.476653 
L 455.178556 76.476653 
z
" style="fill: #d62728"/>
   </g>
   <g id="text_20">
    <!-- NN Projection -->
    <g transform="translate(520.178556 94.676653) scale(0.26 -0.26)">
     <defs>
      <path id="CMR17-72" d="M 960 1497 
C 960 2112 1222 2688 1702 2688 
C 1747 2688 1792 2682 1837 2662 
C 1837 2662 1696 2617 1696 2452 
C 1696 2298 1818 2234 1914 2234 
C 1990 2234 2131 2279 2131 2458 
C 2131 2663 1926 2790 1709 2790 
C 1222 2790 1011 2317 947 2093 
L 941 2093 
L 941 2790 
L 198 2720 
L 198 2554 
C 576 2554 634 2515 634 2208 
L 634 428 
C 634 184 608 153 198 153 
L 198 -13 
C 352 0 646 0 813 0 
C 998 0 1325 0 1498 -13 
L 1498 153 
C 1037 153 960 153 960 440 
L 960 1497 
z
" transform="scale(0.015625)"/>
      <path id="CMR17-6f" d="M 2758 1356 
C 2758 2176 2163 2816 1466 2816 
C 768 2816 173 2176 173 1356 
C 173 551 768 -64 1466 -64 
C 2163 -64 2758 551 2758 1356 
z
M 1466 51 
C 1165 51 909 230 762 480 
C 602 767 582 1126 582 1408 
C 582 1677 595 2010 762 2298 
C 890 2509 1139 2714 1466 2714 
C 1754 2714 1997 2554 2150 2330 
C 2349 2029 2349 1607 2349 1408 
C 2349 1158 2336 775 2163 467 
C 1984 173 1709 51 1466 51 
z
" transform="scale(0.015625)"/>
      <path id="CMR17-6a" d="M 1165 3963 
C 1165 4103 1050 4224 902 4224 
C 762 4224 640 4110 640 3963 
C 640 3823 755 3702 902 3702 
C 1043 3702 1165 3817 1165 3963 
z
M 365 2754 
L 365 2588 
C 787 2588 838 2543 838 2235 
L 838 -359 
C 838 -678 781 -1178 403 -1178 
C 358 -1178 186 -1178 45 -1082 
C 90 -1075 250 -1031 250 -851 
C 250 -729 166 -621 19 -621 
C -122 -621 -211 -717 -211 -858 
C -211 -1114 70 -1280 397 -1280 
C 838 -1280 1165 -877 1165 -332 
L 1165 2825 
L 365 2754 
z
" transform="scale(0.015625)"/>
      <path id="CMR17-65" d="M 2438 1472 
C 2464 1498 2464 1511 2464 1576 
C 2464 2238 2118 2816 1389 2816 
C 710 2816 173 2169 173 1383 
C 173 551 781 -64 1459 -64 
C 2176 -64 2458 607 2458 740 
C 2458 784 2419 784 2406 784 
C 2362 784 2355 771 2330 696 
C 2189 265 1837 51 1504 51 
C 1229 51 954 203 781 480 
C 582 803 582 1176 582 1472 
L 2438 1472 
z
M 589 1568 
C 634 2505 1126 2714 1382 2714 
C 1818 2714 2112 2297 2118 1568 
L 589 1568 
z
" transform="scale(0.015625)"/>
      <path id="CMR17-63" d="M 2234 2240 
C 2112 2240 1933 2240 1933 2017 
C 1933 1838 2080 1787 2163 1787 
C 2208 1787 2394 1807 2394 2024 
C 2394 2467 1958 2803 1466 2803 
C 787 2803 211 2178 211 1363 
C 211 516 813 -64 1466 -64 
C 2259 -64 2458 677 2458 748 
C 2458 774 2451 793 2406 793 
C 2362 793 2355 787 2330 703 
C 2163 180 1798 51 1523 51 
C 1114 51 621 427 621 1369 
C 621 2338 1094 2688 1472 2688 
C 1722 2688 2093 2573 2234 2240 
z
" transform="scale(0.015625)"/>
      <path id="CMR17-74" d="M 966 2560 
L 1862 2560 
L 1862 2725 
L 966 2725 
L 966 3904 
L 851 3904 
C 838 3245 614 2668 70 2668 
L 70 2560 
L 627 2560 
L 627 771 
C 627 650 627 -64 1370 -64 
C 1747 -64 1965 306 1965 777 
L 1965 1140 
L 1850 1140 
L 1850 783 
C 1850 344 1677 51 1408 51 
C 1222 51 966 178 966 758 
L 966 2560 
z
" transform="scale(0.015625)"/>
      <path id="CMR17-69" d="M 992 3909 
C 992 4049 877 4170 730 4170 
C 589 4170 467 4056 467 3909 
C 467 3769 582 3648 730 3648 
C 870 3648 992 3763 992 3909 
z
M 243 2706 
L 243 2541 
C 602 2541 653 2502 653 2197 
L 653 427 
C 653 184 627 153 218 153 
L 218 -13 
C 371 0 646 0 806 0 
C 960 0 1222 0 1370 -13 
L 1370 153 
C 992 153 979 191 979 420 
L 979 2776 
L 243 2706 
z
" transform="scale(0.015625)"/>
      <path id="CMR17-6e" d="M 2656 1933 
C 2656 2259 2592 2790 1837 2790 
C 1331 2790 1069 2400 973 2144 
L 966 2144 
L 966 2790 
L 211 2720 
L 211 2554 
C 589 2554 646 2515 646 2208 
L 646 428 
C 646 184 621 153 211 153 
L 211 -13 
C 365 0 646 0 813 0 
C 979 0 1267 0 1421 -13 
L 1421 153 
C 1011 153 986 178 986 428 
L 986 1658 
C 986 2247 1344 2688 1792 2688 
C 2266 2688 2317 2266 2317 1958 
L 2317 428 
C 2317 184 2291 153 1882 153 
L 1882 -13 
C 2035 0 2317 0 2483 0 
C 2650 0 2938 0 3091 -13 
L 3091 153 
C 2682 153 2656 178 2656 428 
L 2656 1933 
z
" transform="scale(0.015625)"/>
     </defs>
     <use xlink:href="#CMR17-4e" transform="scale(0.996264)"/>
     <use xlink:href="#CMR17-4e" transform="translate(69.07243 0) scale(0.996264)"/>
     <use xlink:href="#CMR17-50" transform="translate(168.220826 0) scale(0.996264)"/>
     <use xlink:href="#CMR17-72" transform="translate(230.807126 0) scale(0.996264)"/>
     <use xlink:href="#CMR17-6f" transform="translate(266.087894 0) scale(0.996264)"/>
     <use xlink:href="#CMR17-6a" transform="translate(316.983173 0) scale(0.996264)"/>
     <use xlink:href="#CMR17-65" transform="translate(344.456685 0) scale(0.996264)"/>
     <use xlink:href="#CMR17-63" transform="translate(384.942346 0) scale(0.996264)"/>
     <use xlink:href="#CMR17-74" transform="translate(425.428006 0) scale(0.996264)"/>
     <use xlink:href="#CMR17-69" transform="translate(460.708774 0) scale(0.996264)"/>
     <use xlink:href="#CMR17-6f" transform="translate(485.579832 0) scale(0.996264)"/>
     <use xlink:href="#CMR17-6e" transform="translate(531.27031 0) scale(0.996264)"/>
    </g>
   </g>
   <g id="patch_36">
    <path d="M 455.178556 120.51498 
L 507.178556 120.51498 
L 507.178556 102.31498 
L 455.178556 102.31498 
z
" style="fill: #9a5092"/>
   </g>
   <g id="text_21">
    <!-- PINN Projection -->
    <g transform="translate(520.178556 120.51498) scale(0.26 -0.26)">
     <use xlink:href="#CMR17-50" transform="scale(0.996264)"/>
     <use xlink:href="#CMR17-49" transform="translate(62.586301 0) scale(0.996264)"/>
     <use xlink:href="#CMR17-4e" transform="translate(95.22471 0) scale(0.996264)"/>
     <use xlink:href="#CMR17-4e" transform="translate(164.29714 0) scale(0.996264)"/>
     <use xlink:href="#CMR17-50" transform="translate(263.445536 0) scale(0.996264)"/>
     <use xlink:href="#CMR17-72" transform="translate(326.031836 0) scale(0.996264)"/>
     <use xlink:href="#CMR17-6f" transform="translate(361.312604 0) scale(0.996264)"/>
     <use xlink:href="#CMR17-6a" transform="translate(412.207883 0) scale(0.996264)"/>
     <use xlink:href="#CMR17-65" transform="translate(439.681395 0) scale(0.996264)"/>
     <use xlink:href="#CMR17-63" transform="translate(480.167055 0) scale(0.996264)"/>
     <use xlink:href="#CMR17-74" transform="translate(520.652716 0) scale(0.996264)"/>
     <use xlink:href="#CMR17-69" transform="translate(555.933484 0) scale(0.996264)"/>
     <use xlink:href="#CMR17-6f" transform="translate(580.804542 0) scale(0.996264)"/>
     <use xlink:href="#CMR17-6e" transform="translate(626.495019 0) scale(0.996264)"/>
    </g>
   </g>
  </g>
 </g>
 <defs>
  <clipPath id="p4a9e1dd155">
   <rect x="146.579976" y="49.256653" width="289.87013" height="249.48"/>
  </clipPath>
  <clipPath id="p38391e3d13">
   <rect x="552.659976" y="156.176653" width="149.76" height="145.8"/>
  </clipPath>
 </defs>
</svg>
